<svg width="448" height="414" viewBox="0 0 448 414" fill="none" xmlns="http://www.w3.org/2000/svg">
<g filter="url(#filter0_d_57_907)">
<path d="M368.789 271.091L432.427 232.572L394.935 170.631C389.334 178.712 381.801 185.265 373.022 189.694C364.243 194.123 354.497 196.288 344.671 195.991C334.845 195.693 325.252 192.944 316.766 187.992C308.279 183.04 301.169 176.044 296.083 167.641C290.996 159.237 288.095 149.693 287.643 139.878C287.192 130.063 289.204 120.289 293.497 111.446C297.79 102.603 304.228 94.9715 312.223 89.2474C320.218 83.5234 329.517 79.8883 339.274 78.6733L298.312 11.0001L239.987 46.3032C247.847 52.2897 254.121 60.1068 258.265 69.0741C262.409 78.0413 264.296 87.887 263.763 97.754C263.23 107.621 260.292 117.211 255.206 125.688C250.119 134.165 243.038 141.273 234.579 146.394C226.12 151.514 216.538 154.492 206.669 155.067C196.799 155.642 186.941 153.798 177.952 149.695C168.962 145.591 161.115 139.353 155.092 131.524C149.068 123.694 145.052 114.51 143.393 104.77L76.5129 145.252L117.454 212.891C107.009 212.901 96.7526 215.686 87.7342 220.96C78.7158 226.234 71.2597 233.808 66.1296 242.906C60.9994 252.004 58.3796 262.299 58.5384 272.738C58.6971 283.176 61.6288 293.382 67.0331 302.31C72.4374 311.239 80.1202 318.569 89.2946 323.55C98.469 328.531 108.805 330.984 119.245 330.658C129.685 330.332 139.853 327.239 148.707 321.694C157.562 316.15 164.786 308.354 169.638 299.105L210.628 366.824L368.789 271.091Z" fill="#FFB3B3"/>
</g>
<defs>
<filter id="filter0_d_57_907" x="43.5312" y="0" width="403.896" height="385.824" filterUnits="userSpaceOnUse" color-interpolation-filters="sRGB">
<feFlood flood-opacity="0" result="BackgroundImageFix"/>
<feColorMatrix in="SourceAlpha" type="matrix" values="0 0 0 0 0 0 0 0 0 0 0 0 0 0 0 0 0 0 127 0" result="hardAlpha"/>
<feOffset dy="4"/>
<feGaussianBlur stdDeviation="7.5"/>
<feComposite in2="hardAlpha" operator="out"/>
<feColorMatrix type="matrix" values="0 0 0 0 0 0 0 0 0 0 0 0 0 0 0 0 0 0 0.25 0"/>
<feBlend mode="normal" in2="BackgroundImageFix" result="effect1_dropShadow_57_907"/>
<feBlend mode="normal" in="SourceGraphic" in2="effect1_dropShadow_57_907" result="shape"/>
</filter>
</defs>
</svg>
