<svg width="421" height="455" viewBox="0 0 421 455" fill="none" xmlns="http://www.w3.org/2000/svg">
<g style="mix-blend-mode:darken" filter="url(#filter0_d_57_802)">
<path d="M240.32 89.1885C247.712 94.8229 253.615 102.179 257.514 110.615C261.414 119.052 263.193 128.313 262.696 137.594C262.199 146.875 259.441 155.894 254.662 163.866C249.884 171.838 243.23 178.521 235.278 183.333C227.327 188.146 218.32 190.943 209.042 191.48C199.763 192.017 190.494 190.278 182.04 186.414C173.587 182.551 166.206 176.68 160.54 169.312C154.874 161.945 151.094 153.305 149.53 144.143L86.6791 182.186L127.561 249.727C116.767 247.815 105.65 249.054 95.5405 253.295C85.4316 257.537 76.759 264.602 70.5606 273.644C64.3623 282.686 60.9009 293.323 60.5906 304.281C60.2803 315.24 63.1343 326.055 68.811 335.434C74.4877 344.812 82.7466 352.357 92.5994 357.163C102.452 361.97 113.481 363.836 124.367 362.538C135.253 361.239 145.533 356.832 153.979 349.842C162.425 342.853 168.678 333.578 171.989 323.127L212.865 390.658L272.679 354.454C264.805 349.065 258.409 341.787 254.077 333.286C249.745 324.786 247.615 315.334 247.881 305.797C248.148 296.26 250.803 286.942 255.603 278.696C260.404 270.451 267.196 263.542 275.358 258.601C283.52 253.661 292.791 250.847 302.323 250.418C311.854 249.988 321.341 251.957 329.914 256.143C338.487 260.33 345.873 266.6 351.396 274.381C356.918 282.161 360.4 291.202 361.524 300.677L421.337 264.472L295.151 56L240.32 89.1885Z" fill="#FFB78E"/>
</g>
<g clip-path="url(#clip0_57_802)">
<path d="M195.531 236.853C201.312 236.853 205.999 232.143 205.999 226.334C205.999 220.525 201.312 215.815 195.531 215.815C189.749 215.815 185.062 220.525 185.062 226.334C185.062 232.143 189.749 236.853 195.531 236.853Z" fill="#F29100"/>
<path d="M218.984 236.853C224.765 236.853 229.453 232.143 229.453 226.334C229.453 220.525 224.765 215.815 218.984 215.815C213.202 215.815 208.515 220.525 208.515 226.334C208.515 232.143 213.202 236.853 218.984 236.853Z" fill="#E20613"/>
<path d="M216.548 221.175L197.23 225.91C195.692 226.287 194.749 227.845 195.125 229.39C195.5 230.935 197.051 231.882 198.588 231.505L217.907 226.77C219.444 226.393 220.387 224.835 220.012 223.29C219.637 221.745 218.086 220.798 216.548 221.175Z" fill="white"/>
<path d="M182.552 230.156C182.602 231.068 182.435 231.977 182.067 232.811C181.699 233.645 181.139 234.38 180.433 234.954C179.029 236.061 176.982 236.617 174.292 236.622L166 236.622L166 214.378L173.884 214.378C176.237 214.378 178.088 214.885 179.437 215.898C180.09 216.369 180.617 216.995 180.97 217.72C181.324 218.446 181.492 219.248 181.461 220.055C181.461 222.193 180.397 223.781 178.269 224.82C179.495 225.057 180.598 225.723 181.382 226.7C182.165 227.677 182.578 228.902 182.546 230.156L182.552 230.156ZM168.93 223.698L173.852 223.698C175.095 223.787 176.338 223.516 177.433 222.915C177.828 222.615 178.141 222.218 178.341 221.762C178.541 221.307 178.622 220.807 178.576 220.311C178.61 219.843 178.529 219.373 178.34 218.943C178.15 218.514 177.859 218.138 177.49 217.848C176.75 217.297 175.456 217.021 173.609 217.021L168.93 217.021L168.93 223.698ZM168.93 233.96L174.26 233.96C177.763 233.96 179.514 232.677 179.514 230.112C179.56 229.565 179.473 229.015 179.262 228.509C179.051 228.004 178.721 227.556 178.301 227.206C177.492 226.595 176.02 226.289 173.884 226.289L168.93 226.289L168.93 233.96Z" fill="#1D1D1B"/>
<path d="M251.437 236.622L247.607 236.622L239.723 225.545L236.283 228.925L236.283 236.622L233.353 236.622L233.353 214.378L236.283 214.378L236.283 225.41L247.071 214.378L251.029 214.378L241.76 223.512L251.437 236.622Z" fill="#1D1D1B"/>
<path d="M263.566 214C264.985 213.952 266.397 214.209 267.709 214.753C269.021 215.297 270.203 216.116 271.175 217.156C273.146 219.259 274.133 222.039 274.137 225.494C274.141 228.949 273.154 231.728 271.175 233.832C269.148 235.855 266.407 236.99 263.55 236.99C260.693 236.99 257.952 235.855 255.925 233.832C253.938 231.724 252.946 228.944 252.95 225.494C252.954 222.043 253.946 219.264 255.925 217.156C256.904 216.117 258.091 215.298 259.408 214.754C260.726 214.21 262.143 213.953 263.566 214ZM263.534 234.479C264.559 234.508 265.577 234.311 266.518 233.902C267.458 233.493 268.299 232.883 268.979 232.113C270.388 230.535 271.094 228.331 271.099 225.5C271.103 222.669 270.399 220.465 268.986 218.887C268.316 218.12 267.486 217.509 266.554 217.1C265.623 216.691 264.614 216.493 263.598 216.521C262.568 216.49 261.545 216.686 260.599 217.095C259.652 217.503 258.807 218.115 258.121 218.887C256.712 220.465 256.008 222.669 256.008 225.5C256.008 228.331 256.719 230.533 258.14 232.106C258.812 232.874 259.643 233.484 260.575 233.894C261.507 234.304 262.517 234.504 263.534 234.479Z" fill="#1D1D1B"/>
<path d="M295.414 236.622L292.394 236.622L280.808 219.067L280.808 236.622L278.031 236.622L278.031 214.378L281.019 214.378L292.618 231.959L292.618 214.378L295.414 214.378L295.414 236.622Z" fill="#1D1D1B"/>
<path d="M314.059 236.622L300.36 236.622L300.36 214.378L303.29 214.378L303.29 233.979L314.059 233.979L314.059 236.622Z" fill="#1D1D1B"/>
<path d="M320.871 236.622L317.928 236.622L317.928 214.378L320.871 214.378L320.871 236.622Z" fill="#1D1D1B"/>
<path d="M343.532 236.622L340.532 236.622L328.933 219.067L328.933 236.622L326.156 236.622L326.156 214.378L329.144 214.378L340.743 231.959L340.743 214.378L343.532 214.378L343.532 236.622Z" fill="#1D1D1B"/>
<path d="M364.757 214.378L348.817 214.378L348.817 217.066L364.757 217.066L364.757 214.378Z" fill="black"/>
<path d="M351.492 236.622L351.492 214.378L348.817 214.378L348.817 236.622L351.492 236.622Z" fill="black"/>
<path d="M363.429 224.159L348.817 224.159L348.817 226.847L363.429 226.847L363.429 224.159Z" fill="black"/>
<path d="M364.993 233.934L348.817 233.934L348.817 236.621L364.993 236.621L364.993 233.934Z" fill="black"/>
<path d="M186.931 226.334C186.933 224.025 187.814 221.803 189.394 220.126C190.974 218.449 193.133 217.444 195.428 217.316C195.262 217.316 195.096 217.316 194.924 217.316C192.536 217.316 190.247 218.269 188.559 219.965C186.871 221.661 185.923 223.961 185.923 226.359C185.923 228.758 186.871 231.058 188.559 232.754C190.247 234.45 192.536 235.403 194.924 235.403C195.096 235.403 195.262 235.403 195.428 235.403C193.124 235.275 190.958 234.262 189.376 232.574C187.795 230.886 186.92 228.652 186.931 226.334Z" fill="white"/>
<path d="M227.377 226.334C227.376 228.643 226.495 230.864 224.915 232.541C223.335 234.218 221.176 235.224 218.881 235.352C219.047 235.352 219.213 235.352 219.385 235.352C221.772 235.352 224.062 234.399 225.75 232.703C227.438 231.007 228.386 228.707 228.386 226.308C228.386 223.91 227.438 221.609 225.75 219.913C224.062 218.217 221.772 217.265 219.385 217.265C219.213 217.265 219.047 217.265 218.881 217.265C221.185 217.393 223.351 218.406 224.932 220.094C226.514 221.782 227.389 224.016 227.377 226.334Z" fill="white"/>
<path d="M195.53 220.318C194.363 220.319 193.222 220.668 192.251 221.321C191.281 221.973 190.525 222.9 190.079 223.984C189.634 225.069 189.518 226.261 189.746 227.412C189.975 228.562 190.538 229.619 191.364 230.448C192.19 231.277 193.242 231.841 194.387 232.07C195.532 232.298 196.719 232.18 197.798 231.731C198.876 231.282 199.798 230.521 200.447 229.546C201.095 228.57 201.441 227.424 201.441 226.25C201.441 225.471 201.288 224.699 200.991 223.979C200.694 223.258 200.259 222.604 199.71 222.053C199.161 221.502 198.509 221.065 197.792 220.767C197.075 220.47 196.306 220.317 195.53 220.318ZM195.53 231.452C194.506 231.452 193.505 231.147 192.654 230.575C191.803 230.004 191.139 229.191 190.747 228.241C190.355 227.291 190.253 226.245 190.453 225.236C190.652 224.227 191.145 223.3 191.869 222.572C192.594 221.845 193.516 221.349 194.52 221.149C195.524 220.948 196.565 221.051 197.511 221.445C198.457 221.838 199.266 222.505 199.835 223.361C200.404 224.216 200.707 225.222 200.707 226.25C200.707 227.63 200.162 228.953 199.191 229.929C198.22 230.904 196.903 231.452 195.53 231.452Z" fill="white"/>
<path d="M218.983 220.318C217.815 220.318 216.673 220.666 215.702 221.317C214.731 221.969 213.975 222.896 213.528 223.98C213.081 225.064 212.964 226.257 213.192 227.408C213.419 228.559 213.982 229.616 214.808 230.446C215.633 231.275 216.686 231.84 217.831 232.069C218.976 232.298 220.164 232.181 221.243 231.732C222.321 231.283 223.244 230.522 223.893 229.547C224.541 228.571 224.888 227.424 224.888 226.25C224.888 224.677 224.266 223.168 223.158 222.055C222.051 220.943 220.549 220.318 218.983 220.318ZM218.983 231.452C217.959 231.453 216.957 231.149 216.105 230.579C215.253 230.008 214.588 229.196 214.195 228.245C213.803 227.295 213.699 226.249 213.898 225.24C214.097 224.23 214.59 223.303 215.314 222.575C216.037 221.846 216.96 221.35 217.964 221.149C218.969 220.948 220.01 221.051 220.956 221.444C221.903 221.838 222.711 222.504 223.281 223.36C223.85 224.215 224.154 225.221 224.154 226.25C224.154 227.629 223.609 228.951 222.639 229.926C221.67 230.902 220.355 231.45 218.983 231.452Z" fill="white"/>
<path d="M198.058 229.598C198.534 229.598 198.92 229.211 198.92 228.733C198.92 228.254 198.534 227.867 198.058 227.867C197.582 227.867 197.196 228.254 197.196 228.733C197.196 229.211 197.582 229.598 198.058 229.598Z" fill="#E84E1B"/>
<path d="M198.262 229.566L197.854 227.892L210.212 225.186L210.263 225.173L210.518 226.238L210.474 226.25L198.262 229.566Z" fill="#E84E1B"/>
<path d="M210.518 226.238L210.474 226.238C210.3 225.91 210.21 225.544 210.212 225.173L210.263 225.173L210.518 226.238Z" fill="#E84E1B"/>
<path d="M212.931 227.36C212.457 227.476 211.958 227.429 211.513 227.228C211.068 227.027 210.702 226.683 210.474 226.25L210.518 226.25L210.263 225.186L210.212 225.186C210.217 224.696 210.385 224.221 210.687 223.837C210.99 223.453 211.411 223.181 211.884 223.063L215.836 222.338L215.925 222.723C215.95 222.825 215.934 222.933 215.88 223.023C215.827 223.113 215.739 223.178 215.638 223.204L212.299 224.018C212.248 224.032 212.204 224.065 212.177 224.11C212.15 224.156 212.141 224.21 212.153 224.262C212.159 224.287 212.171 224.311 212.187 224.332C212.202 224.353 212.222 224.37 212.245 224.383C212.267 224.396 212.292 224.405 212.318 224.408C212.344 224.412 212.37 224.41 212.395 224.403L215.836 223.563C215.872 223.554 215.909 223.552 215.946 223.558C215.983 223.564 216.018 223.577 216.05 223.596C216.081 223.615 216.109 223.641 216.131 223.671C216.153 223.701 216.169 223.735 216.177 223.771C216.186 223.808 216.188 223.845 216.182 223.882C216.176 223.919 216.164 223.954 216.144 223.986C216.125 224.018 216.1 224.046 216.07 224.068C216.04 224.09 216.006 224.106 215.97 224.115L212.491 224.968C212.465 224.974 212.441 224.985 212.42 225.001C212.399 225.017 212.381 225.036 212.367 225.059C212.354 225.082 212.344 225.107 212.341 225.133C212.337 225.159 212.338 225.186 212.344 225.211C212.35 225.237 212.362 225.261 212.377 225.282C212.393 225.304 212.412 225.322 212.435 225.336C212.457 225.349 212.482 225.358 212.508 225.362C212.534 225.366 212.561 225.365 212.587 225.359L216.072 224.499C216.145 224.484 216.221 224.497 216.284 224.537C216.347 224.576 216.392 224.639 216.41 224.711C216.428 224.783 216.416 224.86 216.378 224.923C216.339 224.987 216.278 225.033 216.206 225.051L212.753 225.898C212.705 225.913 212.665 225.946 212.641 225.99C212.617 226.034 212.61 226.086 212.622 226.135C212.634 226.184 212.664 226.226 212.706 226.253C212.748 226.281 212.799 226.291 212.848 226.282L216.181 225.468C216.232 225.454 216.285 225.452 216.337 225.459C216.39 225.467 216.44 225.485 216.485 225.513C216.53 225.54 216.57 225.576 216.601 225.619C216.632 225.662 216.654 225.711 216.666 225.763L216.755 226.141L212.931 227.36Z" fill="#E84E1B"/>
</g>
<defs>
<filter id="filter0_d_57_802" x="0.567383" y="0" width="480.77" height="454.658" filterUnits="userSpaceOnUse" color-interpolation-filters="sRGB">
<feFlood flood-opacity="0" result="BackgroundImageFix"/>
<feColorMatrix in="SourceAlpha" type="matrix" values="0 0 0 0 0 0 0 0 0 0 0 0 0 0 0 0 0 0 127 0" result="hardAlpha"/>
<feOffset dy="4"/>
<feGaussianBlur stdDeviation="30"/>
<feComposite in2="hardAlpha" operator="out"/>
<feColorMatrix type="matrix" values="0 0 0 0 0 0 0 0 0 0 0 0 0 0 0 0 0 0 0.25 0"/>
<feBlend mode="normal" in2="BackgroundImageFix" result="effect1_dropShadow_57_802"/>
<feBlend mode="normal" in="SourceGraphic" in2="effect1_dropShadow_57_802" result="shape"/>
</filter>
<clipPath id="clip0_57_802">
<rect width="199" height="23" fill="white" transform="translate(166 214)"/>
</clipPath>
</defs>
</svg>
