<svg width="312" height="36" viewBox="0 0 312 36" fill="none" xmlns="http://www.w3.org/2000/svg">
<g clip-path="url(#clip0_59_87)">
<path d="M46.2603 35.63C55.3178 35.63 62.6604 28.2875 62.6604 19.23C62.6604 10.1725 55.3178 2.83 46.2603 2.83C37.2029 2.83 29.8604 10.1725 29.8604 19.23C29.8604 28.2875 37.2029 35.63 46.2603 35.63Z" fill="#F29100"/>
<path d="M82.9996 35.63C92.0571 35.63 99.3996 28.2875 99.3996 19.23C99.3996 10.1725 92.0571 2.83 82.9996 2.83C73.9421 2.83 66.5996 10.1725 66.5996 19.23C66.5996 28.2875 73.9421 35.63 82.9996 35.63Z" fill="#E20613"/>
<path d="M79.1841 11.1859L48.9216 18.5687C46.5125 19.1564 45.036 21.5858 45.6237 23.9949C46.2115 26.404 48.6409 27.8805 51.05 27.2928L81.3124 19.91C83.7215 19.3223 85.1981 16.8929 84.6103 14.4838C84.0226 12.0747 81.5932 10.5982 79.1841 11.1859Z" fill="white"/>
<path d="M25.93 25.19C26.0071 26.6105 25.7465 28.029 25.1694 29.3292C24.5923 30.6294 23.7152 31.7743 22.61 32.67C20.41 34.3967 17.2033 35.2633 12.99 35.27H0V0.59H12.35C16.0367 0.59 18.9367 1.38 21.05 2.96C22.0732 3.6936 22.8984 4.6696 23.4516 5.80052C24.0049 6.93144 24.2689 8.18196 24.22 9.44C24.22 12.7733 22.5533 15.25 19.22 16.87C21.1411 17.2388 22.869 18.2775 24.096 19.8012C25.3229 21.3248 25.9693 23.2344 25.92 25.19H25.93ZM4.59 15.12H12.3C14.2483 15.2594 16.1956 14.8359 17.91 13.9C18.5294 13.4317 19.0189 12.8129 19.3321 12.1024C19.6454 11.3919 19.772 10.6132 19.7 9.84C19.7537 9.10955 19.6267 8.37712 19.3302 7.7074C19.0337 7.03767 18.5769 6.45127 18 6C16.84 5.14 14.8133 4.71 11.92 4.71H4.59V15.12ZM4.59 31.12H12.94C18.4267 31.12 21.17 29.12 21.17 25.12C21.2415 24.2677 21.1061 23.4108 20.7753 22.6221C20.4445 21.8334 19.9281 21.1362 19.27 20.59C18.0033 19.6367 15.6967 19.16 12.35 19.16H4.59V31.12Z" fill="#1D1D1B"/>
<path d="M133.84 35.27H127.84L115.49 18L110.1 23.27V35.27H105.51V0.59H110.1V17.79L127 0.59H133.2L118.68 14.83L133.84 35.27Z" fill="#1D1D1B"/>
<path d="M152.84 -8.56817e-08C155.062 -0.0744382 157.275 0.325896 159.331 1.1743C161.386 2.0227 163.237 3.29966 164.76 4.92C167.847 8.2 169.393 12.5333 169.4 17.92C169.407 23.3067 167.86 27.64 164.76 30.92C161.585 34.0741 157.291 35.8442 152.815 35.8442C148.339 35.8442 144.045 34.0741 140.87 30.92C137.757 27.6333 136.203 23.3 136.21 17.92C136.217 12.54 137.77 8.20667 140.87 4.92C142.404 3.29991 144.264 2.02366 146.327 1.17554C148.39 0.327431 150.61 -0.0732387 152.84 -8.56817e-08ZM152.79 31.93C154.395 31.9747 155.99 31.6676 157.464 31.0301C158.937 30.3926 160.254 29.4403 161.32 28.24C163.527 25.78 164.633 22.3433 164.64 17.93C164.647 13.5167 163.543 10.08 161.33 7.62C160.28 6.4229 158.98 5.47167 157.521 4.83392C156.063 4.19617 154.481 3.88755 152.89 3.93C151.277 3.882 149.674 4.18744 148.191 4.82488C146.709 5.46232 145.384 6.41634 144.31 7.62C142.103 10.08 141 13.5167 141 17.93C141 22.3433 142.113 25.7767 144.34 28.23C145.392 29.427 146.694 30.3787 148.154 31.0179C149.614 31.6572 151.197 31.9686 152.79 31.93Z" fill="#1D1D1B"/>
<path d="M202.73 35.27H198L179.85 7.9V35.27H175.5V0.59H180.18L198.35 28V0.59H202.73V35.27Z" fill="#1D1D1B"/>
<path d="M231.94 35.27H210.48V0.59H215.07V31.15H231.94V35.27Z" fill="#1D1D1B"/>
<path d="M242.61 35.27H238V0.59H242.61V35.27Z" fill="#1D1D1B"/>
<path d="M278.11 35.27H273.41L255.24 7.9V35.27H250.89V0.59H255.57L273.74 28V0.59H278.11V35.27Z" fill="#1D1D1B"/>
<path d="M311.36 0.59H286.39V4.78H311.36V0.59Z" fill="black"/>
<path d="M290.58 35.27V0.589993L286.39 0.589993V35.27H290.58Z" fill="black"/>
<path d="M309.28 15.84H286.39V20.03H309.28V15.84Z" fill="black"/>
<path d="M311.73 31.08H286.39V35.27H311.73V31.08Z" fill="black"/>
<path d="M32.79 19.23C32.7921 15.6296 34.1725 12.1666 36.6477 9.55191C39.1228 6.93724 42.5051 5.36931 46.1 5.17C45.84 5.17 45.58 5.17 45.31 5.17C41.5704 5.17 37.984 6.65553 35.3398 9.29979C32.6955 11.9441 31.21 15.5304 31.21 19.27C31.21 23.0096 32.6955 26.5959 35.3398 29.2402C37.984 31.8845 41.5704 33.37 45.31 33.37C45.58 33.37 45.84 33.37 46.1 33.37C42.4912 33.17 39.0974 31.5908 36.6201 28.9591C34.1428 26.3273 32.7716 22.8442 32.79 19.23Z" fill="white"/>
<path d="M96.1498 19.23C96.1477 22.8304 94.7673 26.2934 92.2922 28.9081C89.817 31.5228 86.4347 33.0907 82.8398 33.29C83.0998 33.29 83.3598 33.29 83.6298 33.29C87.3694 33.29 90.9558 31.8045 93.6001 29.1602C96.2443 26.5159 97.7299 22.9296 97.7299 19.19C97.7299 15.4504 96.2443 11.8641 93.6001 9.21979C90.9558 6.57553 87.3694 5.09 83.6298 5.09C83.3598 5.09 83.0998 5.09 82.8398 5.09C86.4486 5.29003 89.8425 6.86918 92.3197 9.50094C94.797 12.1327 96.1682 15.6158 96.1498 19.23Z" fill="white"/>
<path d="M46.2595 9.85C44.4305 9.85198 42.6431 10.3962 41.1232 11.4138C39.6034 12.4314 38.4194 13.8767 37.7208 15.5671C37.0222 17.2575 36.8405 19.117 37.1985 20.9107C37.5565 22.7044 38.4383 24.3516 39.7323 25.6443C41.0264 26.9369 42.6746 27.8169 44.4686 28.173C46.2627 28.5291 48.122 28.3453 49.8117 27.6449C51.5013 26.9445 52.9454 25.7589 53.9613 24.238C54.9773 22.717 55.5195 20.9291 55.5195 19.1C55.5195 17.8844 55.2799 16.6808 54.8145 15.5579C54.349 14.435 53.6667 13.4148 52.8067 12.5557C51.9467 11.6967 50.9258 11.0155 49.8024 10.5512C48.679 10.087 47.4751 9.84869 46.2595 9.85ZM46.2595 27.21C44.6555 27.21 43.0875 26.7344 41.7539 25.8432C40.4202 24.9521 39.3807 23.6855 38.7669 22.2036C38.153 20.7217 37.9924 19.091 38.3054 17.5178C38.6183 15.9446 39.3907 14.4996 40.5249 13.3654C41.6591 12.2312 43.1042 11.4588 44.6774 11.1458C46.2505 10.8329 47.8812 10.9935 49.3631 11.6073C50.845 12.2212 52.1116 13.2606 53.0028 14.5943C53.8939 15.928 54.3695 17.496 54.3695 19.1C54.3695 21.2509 53.5151 23.3137 51.9942 24.8346C50.4733 26.3556 48.4104 27.21 46.2595 27.21Z" fill="white"/>
<path d="M83 9.85C81.1705 9.85 79.3821 10.3925 77.861 11.4089C76.3398 12.4253 75.1542 13.87 74.4541 15.5602C73.754 17.2504 73.5708 19.1103 73.9277 20.9046C74.2847 22.6989 75.1656 24.3471 76.4593 25.6407C77.7529 26.9344 79.4011 27.8154 81.1954 28.1723C82.9897 28.5292 84.8496 28.346 86.5398 27.6459C88.23 26.9458 89.6747 25.7602 90.6911 24.239C91.7075 22.7179 92.25 20.9295 92.25 19.1C92.25 16.6467 91.2755 14.294 89.5407 12.5593C87.806 10.8246 85.4533 9.85 83 9.85ZM83 27.21C81.3956 27.212 79.8266 26.738 78.4916 25.8481C77.1566 24.9581 76.1156 23.6922 75.5002 22.2105C74.8849 20.7288 74.7228 19.0978 75.0346 17.524C75.3464 15.9501 76.118 14.5041 77.2518 13.3689C78.3856 12.2337 79.8307 11.4603 81.4041 11.1466C82.9776 10.8328 84.6088 10.9929 86.0913 11.6064C87.5737 12.2199 88.8409 13.2594 89.7325 14.5933C90.6241 15.9272 91.1 17.4956 91.1 19.1C91.1 21.2492 90.2469 23.3105 88.7282 24.8311C87.2094 26.3517 85.1492 27.2073 83 27.21Z" fill="white"/>
<path d="M50.2201 24.32C50.9657 24.32 51.5701 23.7156 51.5701 22.97C51.5701 22.2244 50.9657 21.62 50.2201 21.62C49.4745 21.62 48.8701 22.2244 48.8701 22.97C48.8701 23.7156 49.4745 24.32 50.2201 24.32Z" fill="#E84E1B"/>
<path d="M50.5404 24.27L49.9004 21.66L69.2604 17.44L69.3404 17.42L69.7404 19.08L69.6704 19.1L50.5404 24.27Z" fill="#E84E1B"/>
<path d="M69.7398 19.08H69.6698C69.3972 18.5694 69.2563 17.9988 69.2598 17.42H69.3398L69.7398 19.08Z" fill="#E84E1B"/>
<path d="M73.5198 20.83C72.777 21.0103 71.9954 20.9381 71.2982 20.6249C70.6011 20.3116 70.0281 19.7751 69.6698 19.1H69.7398L69.3398 17.44H69.2598C69.2683 16.6761 69.5303 15.9366 70.0044 15.3375C70.4786 14.7385 71.1382 14.3138 71.8798 14.13L78.0698 13L78.2098 13.6C78.2491 13.7591 78.2239 13.9273 78.1395 14.0679C78.0552 14.2084 77.9187 14.3099 77.7598 14.35L72.5298 15.62C72.4497 15.6413 72.381 15.6927 72.3381 15.7636C72.2952 15.8345 72.2815 15.9192 72.2998 16C72.3102 16.0394 72.3283 16.0764 72.3531 16.1088C72.3779 16.1412 72.4088 16.1684 72.4441 16.1889C72.4794 16.2093 72.5184 16.2226 72.5588 16.2279C72.5993 16.2333 72.6404 16.2306 72.6798 16.22L78.0698 14.91C78.1262 14.8962 78.1849 14.8937 78.2423 14.9025C78.2998 14.9114 78.3549 14.9315 78.4046 14.9617C78.4543 14.9919 78.4975 15.0315 78.5319 15.0784C78.5662 15.1253 78.591 15.1785 78.6048 15.235C78.6186 15.2915 78.6211 15.3501 78.6122 15.4075C78.6033 15.465 78.5832 15.5201 78.5531 15.5698C78.5229 15.6195 78.4832 15.6627 78.4363 15.6971C78.3894 15.7314 78.3362 15.7562 78.2798 15.77L72.8298 17.1C72.7897 17.1098 72.752 17.1275 72.7188 17.1519C72.6855 17.1763 72.6574 17.2071 72.6361 17.2424C72.6147 17.2777 72.6005 17.3168 72.5943 17.3576C72.588 17.3983 72.5899 17.4399 72.5998 17.48C72.6096 17.5201 72.6273 17.5578 72.6517 17.591C72.6761 17.6242 72.7068 17.6523 72.7421 17.6737C72.7774 17.6951 72.8166 17.7093 72.8573 17.7155C72.8981 17.7217 72.9397 17.7198 72.9798 17.71L78.4398 16.37C78.5536 16.3458 78.6725 16.3666 78.7713 16.4281C78.8701 16.4897 78.9413 16.5871 78.9698 16.7C78.997 16.8127 78.9787 16.9316 78.9187 17.0308C78.8588 17.13 78.7622 17.2016 78.6498 17.23L73.2398 18.55C73.1652 18.5743 73.1026 18.626 73.0646 18.6947C73.0267 18.7633 73.0161 18.8438 73.0352 18.9199C73.0542 18.996 73.1014 19.0621 73.1672 19.1048C73.233 19.1475 73.3125 19.1636 73.3898 19.15L78.6098 17.88C78.6899 17.8592 78.7734 17.8546 78.8553 17.8665C78.9373 17.8785 79.016 17.9068 79.0868 17.9496C79.1577 17.9925 79.2192 18.0491 79.2678 18.1162C79.3164 18.1832 79.3511 18.2593 79.3698 18.34L79.5098 18.93L73.5198 20.83Z" fill="#E84E1B"/>
</g>
<defs>
<clipPath id="clip0_59_87">
<rect width="311.74" height="35.86" fill="white"/>
</clipPath>
</defs>
</svg>
