<svg width="9" height="6" viewBox="0 0 9 6" fill="none" xmlns="http://www.w3.org/2000/svg">
<g clip-path="url(#clip0_57_843)">
<path d="M8.74849 0.171861C8.60415 0.04749 8.41744 -0.0133983 8.22924 0.00253046C8.04104 0.0184592 7.86669 0.109907 7.74438 0.256847L4.49905 4.17564L1.25372 0.256847C1.13112 0.109839 0.956347 0.0185948 0.767867 0.0031881C0.579386 -0.0122186 0.392633 0.0494741 0.24869 0.174694C0.104748 0.299915 0.0154065 0.478405 0.000321178 0.6709C-0.0147642 0.863395 0.0456418 1.05413 0.168251 1.20113L3.9369 5.7526C4.00493 5.83449 4.0901 5.89973 4.18611 5.94353C4.28212 5.98733 4.38654 6.00857 4.49165 6.00567C4.59827 6.00972 4.70441 5.98906 4.80209 5.94523C4.89977 5.9014 4.98646 5.83554 5.05566 5.7526L8.8317 1.19547C8.9529 1.04817 9.01217 0.857903 8.99658 0.666156C8.98099 0.474409 8.89181 0.296732 8.74849 0.171861Z" fill="white"/>
</g>
<defs>
<clipPath id="clip0_57_843">
<rect width="9" height="6" fill="white"/>
</clipPath>
</defs>
</svg>
