<svg width="103" height="12" viewBox="0 0 103 12" fill="none" xmlns="http://www.w3.org/2000/svg">
<g clip-path="url(#clip0_59_112)">
<path d="M15.2848 11.923C18.2774 11.923 20.7034 9.46597 20.7034 6.43503C20.7034 3.40409 18.2774 0.947021 15.2848 0.947021C12.2922 0.947021 9.86621 3.40409 9.86621 6.43503C9.86621 9.46597 12.2922 11.923 15.2848 11.923Z" fill="#F29100"/>
<path d="M27.4235 11.923C30.4161 11.923 32.8421 9.46597 32.8421 6.43503C32.8421 3.40409 30.4161 0.947021 27.4235 0.947021C24.4309 0.947021 22.0049 3.40409 22.0049 6.43503C22.0049 9.46597 24.4309 11.923 27.4235 11.923Z" fill="#E20613"/>
<path d="M26.1627 3.74318L16.1639 6.21372C15.3679 6.41039 14.8801 7.22335 15.0743 8.02952C15.2684 8.83569 16.0711 9.32979 16.8671 9.13312L26.8659 6.66258C27.6619 6.46591 28.1498 5.65294 27.9556 4.84677C27.7614 4.0406 26.9587 3.54651 26.1627 3.74318Z" fill="white"/>
<path d="M8.56736 8.42945C8.59285 8.90478 8.50672 9.37946 8.31604 9.81456C8.12537 10.2497 7.83557 10.6328 7.47042 10.9325C6.74354 11.5103 5.68404 11.8003 4.29194 11.8026H0V0.197433H4.08048C5.29857 0.197433 6.25674 0.461795 6.95499 0.990518C7.29306 1.23601 7.5657 1.56261 7.74849 1.94105C7.93129 2.3195 8.01852 2.73796 8.00237 3.15895C8.00237 4.2744 7.4517 5.10318 6.35036 5.64529C6.98511 5.76871 7.55601 6.1163 7.96139 6.62615C8.36678 7.13601 8.58035 7.77503 8.56406 8.42945H8.56736ZM1.51655 5.05968H4.06396C4.70768 5.10633 5.35108 4.96462 5.91753 4.65142C6.12217 4.4947 6.2839 4.28764 6.3874 4.04988C6.4909 3.81212 6.53274 3.55153 6.50895 3.2928C6.5267 3.04837 6.48474 2.80327 6.38678 2.57916C6.28882 2.35505 6.13787 2.15882 5.94726 2.00781C5.564 1.72002 4.89438 1.57613 3.93841 1.57613H1.51655V5.05968ZM1.51655 10.4138H4.27542C6.08824 10.4138 6.99464 9.74456 6.99464 8.40602C7.01828 8.12082 6.97354 7.83406 6.86424 7.57013C6.75494 7.3062 6.58432 7.07292 6.36688 6.89013C5.94837 6.57111 5.18623 6.4116 4.08048 6.4116H1.51655V10.4138Z" fill="#1D1D1B"/>
<path d="M44.2217 11.8026H42.2392L38.1588 6.02342L36.3779 7.78695V11.8026H34.8613V0.197433H36.3779V5.95315L41.9617 0.197433H44.0102L39.2127 4.96263L44.2217 11.8026Z" fill="#1D1D1B"/>
<path d="M50.4985 3.74997e-06C51.2328 -0.0249058 51.9639 0.10906 52.6431 0.392965C53.3222 0.676869 53.9338 1.10418 54.4369 1.64641C55.4568 2.74401 55.9678 4.19409 55.97 5.99666C55.9722 7.79922 55.4612 9.24931 54.4369 10.3469C53.3878 11.4024 51.969 11.9947 50.4903 11.9947C49.0115 11.9947 47.5928 11.4024 46.5436 10.3469C45.5149 9.24708 45.0017 7.79699 45.0039 5.99666C45.0061 4.19632 45.5193 2.74624 46.5436 1.64641C47.0503 1.10427 47.6649 0.677189 48.3466 0.393381C49.0284 0.109574 49.7618 -0.0245044 50.4985 3.74997e-06ZM50.482 10.6849C51.0123 10.6999 51.5394 10.5971 52.0263 10.3838C52.5131 10.1704 52.948 9.85176 53.3003 9.45009C54.0294 8.62689 54.3951 7.47686 54.3973 6C54.3995 4.52315 54.0349 3.37312 53.3036 2.54992C52.9569 2.14933 52.5272 1.83102 52.0453 1.6176C51.5633 1.40419 51.0409 1.30091 50.515 1.31512C49.9822 1.29906 49.4523 1.40127 48.9626 1.61458C48.4729 1.82789 48.0352 2.14713 47.6802 2.54992C46.9511 3.37312 46.5865 4.52315 46.5865 6C46.5865 7.47686 46.9544 8.62577 47.6901 9.44674C48.0378 9.8473 48.468 10.1658 48.9503 10.3797C49.4327 10.5936 49.9556 10.6978 50.482 10.6849Z" fill="#1D1D1B"/>
<path d="M66.9822 11.8026H65.4194L59.4226 2.64361V11.8026H57.9854V0.197433H59.5316L65.5351 9.36977V0.197433H66.9822V11.8026Z" fill="#1D1D1B"/>
<path d="M76.6334 11.8026H69.543V0.197433H71.0595V10.4239H76.6334V11.8026Z" fill="#1D1D1B"/>
<path d="M80.1589 11.8026H78.6357V0.197433H80.1589V11.8026Z" fill="#1D1D1B"/>
<path d="M91.8881 11.8026H90.3352L84.3318 2.64361V11.8026H82.8945V0.197433H84.4408L90.4442 9.36977V0.197433H91.8881V11.8026Z" fill="#1D1D1B"/>
<path d="M102.874 0.197433H94.624V1.59955H102.874V0.197433Z" fill="black"/>
<path d="M96.0088 11.8026V0.197433L94.6244 0.197433V11.8026H96.0088Z" fill="black"/>
<path d="M102.187 5.30061H94.624V6.70273H102.187V5.30061Z" fill="black"/>
<path d="M102.996 10.4005H94.624V11.8026H102.996V10.4005Z" fill="black"/>
<path d="M10.8336 6.43502C10.8343 5.23019 11.2903 4.07135 12.1082 3.1964C12.926 2.32144 14.0435 1.79675 15.2312 1.73006C15.1453 1.73006 15.0594 1.73006 14.9702 1.73006C13.7347 1.73006 12.5497 2.22717 11.676 3.11203C10.8023 3.99689 10.3115 5.19702 10.3115 6.44841C10.3115 7.69979 10.8023 8.89992 11.676 9.78478C12.5497 10.6696 13.7347 11.1668 14.9702 11.1668C15.0594 11.1668 15.1453 11.1668 15.2312 11.1668C14.0389 11.0998 12.9175 10.5714 12.099 9.6907C11.2805 8.81003 10.8275 7.64447 10.8336 6.43502Z" fill="white"/>
<path d="M31.7688 6.43503C31.7681 7.63985 31.312 8.7987 30.4942 9.67365C29.6764 10.5486 28.5589 11.0733 27.3711 11.14C27.457 11.14 27.5429 11.14 27.6321 11.14C28.8677 11.14 30.0526 10.6429 30.9263 9.75802C31.8 8.87316 32.2908 7.67303 32.2908 6.42164C32.2908 5.17026 31.8 3.97013 30.9263 3.08527C30.0526 2.2004 28.8677 1.70329 27.6321 1.70329C27.5429 1.70329 27.457 1.70329 27.3711 1.70329C28.5634 1.77023 29.6848 2.29867 30.5033 3.17935C31.3218 4.06002 31.7748 5.22558 31.7688 6.43503Z" fill="white"/>
<path d="M15.2844 3.29614C14.6801 3.29681 14.0895 3.47891 13.5873 3.81943C13.0852 4.15996 12.694 4.64362 12.4631 5.20928C12.2323 5.77495 12.1723 6.39722 12.2906 6.99744C12.4089 7.59766 12.7002 8.14889 13.1278 8.58145C13.5553 9.01401 14.0999 9.30849 14.6927 9.42765C15.2854 9.54682 15.8997 9.48532 16.458 9.25094C17.0163 9.01656 17.4934 8.61982 17.8291 8.11086C18.1648 7.6019 18.3439 7.00358 18.3439 6.39152C18.3439 5.98474 18.2648 5.58196 18.111 5.20619C17.9572 4.83043 17.7317 4.48905 17.4476 4.20157C17.1634 3.9141 16.8261 3.68616 16.455 3.5308C16.0838 3.37544 15.686 3.2957 15.2844 3.29614ZM15.2844 9.1054C14.7544 9.1054 14.2363 8.94624 13.7957 8.64803C13.355 8.34982 13.0116 7.92597 12.8088 7.43007C12.606 6.93418 12.5529 6.3885 12.6563 5.86206C12.7597 5.33562 13.0149 4.85205 13.3896 4.47251C13.7644 4.09296 14.2418 3.83449 14.7616 3.72977C15.2814 3.62506 15.8202 3.6788 16.3098 3.88421C16.7994 4.08962 17.2179 4.43746 17.5124 4.88376C17.8068 5.33006 17.9639 5.85476 17.9639 6.39152C17.9639 7.11128 17.6816 7.80157 17.1791 8.31052C16.6766 8.81948 15.995 9.1054 15.2844 9.1054Z" fill="white"/>
<path d="M27.4234 3.29616C26.819 3.29616 26.2281 3.4777 25.7255 3.81782C25.2229 4.15795 24.8312 4.64138 24.5998 5.20698C24.3685 5.77259 24.308 6.39496 24.4259 6.99541C24.5438 7.59585 24.8349 8.14739 25.2623 8.58029C25.6898 9.01318 26.2343 9.30799 26.8272 9.42742C27.42 9.54686 28.0345 9.48556 28.593 9.25128C29.1514 9.017 29.6288 8.62026 29.9646 8.11122C30.3004 7.60219 30.4797 7.00374 30.4797 6.39153C30.4797 5.57059 30.1577 4.78327 29.5845 4.20277C29.0114 3.62228 28.234 3.29616 27.4234 3.29616ZM27.4234 9.10542C26.8933 9.10608 26.3749 8.94747 25.9338 8.64967C25.4927 8.35187 25.1488 7.92825 24.9455 7.43241C24.7421 6.93657 24.6886 6.39079 24.7916 5.86413C24.8946 5.33747 25.1496 4.85359 25.5242 4.47371C25.8988 4.09383 26.3763 3.83502 26.8961 3.73004C27.416 3.62505 27.955 3.6786 28.4448 3.88391C28.9346 4.08921 29.3533 4.43706 29.6479 4.88343C29.9425 5.32979 30.0997 5.85463 30.0997 6.39153C30.0997 7.11072 29.8178 7.8005 29.316 8.30935C28.8142 8.81821 28.1335 9.10453 27.4234 9.10542Z" fill="white"/>
<path d="M16.5925 8.13832C16.8389 8.13832 17.0386 7.93606 17.0386 7.68656C17.0386 7.43706 16.8389 7.2348 16.5925 7.2348C16.3462 7.2348 16.1465 7.43706 16.1465 7.68656C16.1465 7.93606 16.3462 8.13832 16.5925 8.13832Z" fill="#E84E1B"/>
<path d="M16.6988 8.12158L16.4873 7.24818L22.8839 5.83602L22.9103 5.82933L23.0425 6.38482L23.0194 6.39152L16.6988 8.12158Z" fill="#E84E1B"/>
<path d="M23.0424 6.38482H23.0193C22.9292 6.21395 22.8826 6.02302 22.8838 5.82933H22.9102L23.0424 6.38482Z" fill="#E84E1B"/>
<path d="M24.2913 6.97044C24.0459 7.03078 23.7877 7.00663 23.5573 6.9018C23.327 6.79697 23.1377 6.61743 23.0193 6.39152H23.0424L22.9102 5.83603H22.8838C22.8866 5.58038 22.9732 5.33292 23.1298 5.13246C23.2865 4.932 23.5044 4.78988 23.7494 4.72839L25.7946 4.35025L25.8409 4.55103C25.8539 4.60427 25.8456 4.66057 25.8177 4.7076C25.7898 4.75463 25.7447 4.78857 25.6922 4.80201L23.9642 5.22699C23.9378 5.2341 23.9151 5.25133 23.9009 5.27504C23.8867 5.29876 23.8822 5.32712 23.8882 5.35415C23.8917 5.36735 23.8977 5.37972 23.9058 5.39057C23.914 5.40142 23.9242 5.41052 23.9359 5.41736C23.9476 5.4242 23.9605 5.42864 23.9738 5.43043C23.9872 5.43221 24.0008 5.43131 24.0138 5.42777L25.7946 4.9894C25.8133 4.98479 25.8327 4.98394 25.8517 4.98691C25.8706 4.98988 25.8889 4.9966 25.9053 5.0067C25.9217 5.0168 25.936 5.03008 25.9473 5.04577C25.9587 5.06146 25.9669 5.07926 25.9714 5.09816C25.976 5.11705 25.9768 5.13668 25.9739 5.1559C25.9709 5.17512 25.9643 5.19357 25.9543 5.2102C25.9444 5.22682 25.9313 5.24129 25.9158 5.25279C25.9003 5.26428 25.8827 5.27257 25.864 5.27719L24.0633 5.72225C24.0501 5.72555 24.0376 5.73145 24.0267 5.73963C24.0157 5.7478 24.0064 5.75808 23.9993 5.76989C23.9923 5.7817 23.9876 5.7948 23.9855 5.80845C23.9835 5.82209 23.9841 5.83601 23.9873 5.84941C23.9906 5.86282 23.9964 5.87544 24.0045 5.88656C24.0126 5.89768 24.0227 5.90709 24.0344 5.91423C24.046 5.92138 24.059 5.92613 24.0724 5.92822C24.0859 5.9303 24.0997 5.92968 24.1129 5.92638L25.9169 5.47797C25.9545 5.46986 25.9938 5.47683 26.0264 5.49742C26.0591 5.51802 26.0826 5.55062 26.092 5.5884C26.101 5.62611 26.0949 5.66589 26.0752 5.6991C26.0554 5.73231 26.0234 5.75626 25.9863 5.76575L24.1988 6.20747C24.1742 6.21561 24.1535 6.23291 24.1409 6.25588C24.1284 6.27885 24.1249 6.30579 24.1312 6.33125C24.1375 6.35672 24.1531 6.37883 24.1748 6.39312C24.1965 6.4074 24.2228 6.41281 24.2484 6.40825L25.9731 5.98327C25.9995 5.97629 26.0271 5.97476 26.0542 5.97877C26.0813 5.98277 26.1073 5.99222 26.1307 6.00657C26.1541 6.02092 26.1744 6.03987 26.1905 6.0623C26.2065 6.08474 26.218 6.11021 26.2242 6.1372L26.2704 6.33463L24.2913 6.97044Z" fill="#E84E1B"/>
</g>
<defs>
<clipPath id="clip0_59_112">
<rect width="103" height="12" fill="white"/>
</clipPath>
</defs>
</svg>
