<svg width="238" height="33" viewBox="0 0 238 33" fill="none" xmlns="http://www.w3.org/2000/svg">
<g clip-path="url(#clip0_57_909)">
<path d="M32.1938 4.6883C32.2024 7.23459 30.1835 9.28304 27.6111 9.34017C23.7669 9.42178 20.8938 12.2949 20.891 16.0593C20.8881 19.8624 23.7571 22.7392 27.627 22.8131C30.1439 22.8616 32.1864 24.9064 32.1958 27.3878C32.2056 29.9757 30.2538 32.056 27.7577 32.1189C25.1207 32.185 23.0234 30.2879 22.8886 27.7151C22.6697 23.5284 20.2038 21.06 15.9675 20.7875C13.4621 20.6242 11.5637 18.6709 11.5298 16.2172C11.4943 13.6183 13.2644 11.6188 15.8156 11.3768C20.4289 10.9361 22.458 8.90885 22.9119 4.2786C23.1599 1.74863 25.2539 -0.10926 27.7275 0.00499716C30.2521 0.122518 32.1852 2.14894 32.1938 4.6883Z" fill="#B71D2E"/>
<path d="M20.8616 4.69723C20.8616 7.24638 18.7688 9.33646 16.2168 9.33564C13.6202 9.33564 11.534 7.26882 11.5303 4.69478C11.5262 2.08116 13.6035 0.00577258 16.218 0.0102613C18.7917 0.0151581 20.8612 2.10238 20.8616 4.69723Z" fill="#B71D2E"/>
<path d="M4.67067 32.1234C4.06117 32.1293 3.45651 32.0148 2.89144 31.7865C2.32637 31.5583 1.81204 31.2207 1.37801 30.7932C0.943977 30.3657 0.598808 29.8568 0.362341 29.2956C0.125873 28.7345 0.00276973 28.1321 0.000107006 27.5233C-0.0170506 24.8991 2.02839 22.8253 4.65066 22.8106C7.20552 22.7959 9.30774 24.8689 9.32572 27.4176C9.34287 30.0402 7.30356 32.1017 4.67067 32.1234Z" fill="#B71D2E"/>
<path d="M4.67834 11.4815C5.28792 11.4801 5.8918 11.5987 6.45541 11.8307C7.01902 12.0627 7.53131 12.4034 7.96295 12.8334C8.3946 13.2633 8.73714 13.7741 8.97096 14.3364C9.20478 14.8987 9.3253 15.5016 9.32562 16.1105C9.33665 18.7143 7.25812 20.7934 4.64443 20.7926C2.05444 20.7913 -0.00570757 18.7184 1.1736e-05 16.1182C0.00573104 13.5181 2.06302 11.4819 4.67834 11.4815Z" fill="#B71D2E"/>
<path d="M33.2627 16.1592C33.264 16.7714 33.1437 17.3778 32.9086 17.9431C32.6736 18.5085 32.3286 19.0217 31.8935 19.4529C31.4585 19.8841 30.9421 20.2247 30.3742 20.4551C29.8064 20.6854 29.1984 20.8009 28.5856 20.7948C25.9821 20.7788 23.9256 18.6892 23.9395 16.0662C23.9534 13.5399 26.0466 11.4759 28.5888 11.4824C31.236 11.4898 33.2708 13.5252 33.2627 16.1592Z" fill="#B71D2E"/>
<path d="M20.8598 27.4922C20.8345 30.1148 18.7511 32.151 16.1255 32.1204C13.5327 32.0907 11.5134 30.0165 11.5314 27.4021C11.5489 24.8378 13.6557 22.7934 16.2612 22.8102C18.8042 22.8265 20.8831 24.9435 20.8598 27.4922Z" fill="#B71D2E"/>
<path d="M4.74638 0.0129425C7.36946 0.0847611 9.38671 2.19443 9.32707 4.80315C9.26784 7.38821 7.10474 9.41422 4.48615 9.33261C1.90106 9.25467 -0.0647185 7.11277 0.00677192 4.45344C0.0741772 1.96755 2.234 -0.0560196 4.74638 0.0129425Z" fill="#B71D2E"/>
<path d="M36.6543 0L44.5162 2.42652e-07L44.5162 32.1237L36.6543 32.1237L36.6543 0Z" fill="#B71D2E"/>
<path d="M67.5004 10.931C69.4986 12.706 70.4975 15.4264 70.4973 19.0922L70.4973 32.1235L63.0255 32.1235L63.0255 29.0945C61.871 31.3748 59.6193 32.515 56.2703 32.5153C54.4973 32.5153 52.9636 32.1979 51.6692 31.5633C50.3747 30.9286 49.3969 30.0691 48.7356 28.9848C48.0741 27.9026 47.7436 26.6687 47.7441 25.2832C47.7441 23.0604 48.5748 21.3359 50.2361 20.1099C51.8974 18.8838 54.4585 18.2702 57.9195 18.2691L62.4785 18.2691C62.3377 15.7873 60.7197 14.5462 57.6245 14.546C56.527 14.546 55.4151 14.7265 54.289 15.0875C53.1628 15.4485 52.206 15.9464 51.4183 16.5814L48.7164 10.9959C49.9828 10.1308 51.5237 9.45979 53.3392 8.9829C55.1231 8.51081 56.9605 8.27079 58.8059 8.2688C62.6049 8.2688 65.503 9.15619 67.5004 10.931ZM60.9564 26.6249C61.6598 26.1644 62.1664 25.4862 62.4761 24.5904L62.4761 22.5558L59.0147 22.5558C56.6785 22.5558 55.5106 23.3493 55.5109 24.9364C55.5109 25.6587 55.7783 26.2359 56.3132 26.6682C56.8481 27.1005 57.5797 27.317 58.5081 27.3178C59.4368 27.3178 60.2529 27.0869 60.9564 26.6249Z" fill="#B71D2E"/>
<path d="M224.569 22.484C225.316 23.3124 225.689 24.5628 225.69 26.2353L225.69 32.6615L222.11 32.6615L222.11 26.8788C222.11 26.0899 221.975 25.5091 221.706 25.1364C221.436 24.7637 221.055 24.5777 220.565 24.5782C220.025 24.5782 219.592 24.7851 219.266 25.1989C218.94 25.6126 218.776 26.2419 218.776 27.0865L218.776 32.6615L215.194 32.6615L215.194 26.8788C215.194 25.3443 214.68 24.5774 213.65 24.5782C213.097 24.5782 212.657 24.7851 212.332 25.1989C212.005 25.6139 211.842 26.2431 211.842 27.0865L211.842 32.6615L208.262 32.6615L208.262 21.4272L211.672 21.4272L211.672 22.6065C212.033 22.1624 212.495 21.8108 213.02 21.5806C213.558 21.3492 214.139 21.2326 214.725 21.2382C215.441 21.2382 216.081 21.3834 216.645 21.6736C217.209 21.9639 217.668 22.4064 218.022 23.0011C218.412 22.444 218.936 21.9947 219.547 21.6953C220.175 21.3882 220.865 21.2317 221.564 21.2382C222.82 21.2393 223.821 21.6546 224.569 22.484Z" fill="#B71D2E"/>
<path d="M236.183 22.5152C237.076 23.3656 237.522 24.6678 237.522 26.4219L237.522 32.6616L234.187 32.6616L234.187 31.2109C233.672 32.3029 232.667 32.8489 231.173 32.8489C230.38 32.8489 229.695 32.6964 229.118 32.3914C228.541 32.0865 228.104 31.6756 227.808 31.1587C227.514 30.6418 227.366 30.0508 227.365 29.3857C227.365 28.3231 227.736 27.4977 228.477 26.9096C229.218 26.3214 230.362 26.0279 231.908 26.029L233.943 26.029C233.88 24.8399 233.158 24.2455 231.778 24.2458C231.27 24.2484 230.767 24.3363 230.289 24.5057C229.819 24.6599 229.384 24.9027 229.007 25.221L227.802 22.5458C228.367 22.1326 229.055 21.8114 229.865 21.5824C230.659 21.3566 231.48 21.2414 232.305 21.24C233.999 21.24 235.292 21.6651 236.183 22.5152ZM233.263 30.0284C233.575 29.8072 233.801 29.4828 233.94 29.0551L233.94 28.0799L232.395 28.0799C231.352 28.0799 230.831 28.4607 230.831 29.2224C230.831 29.5679 230.95 29.8446 231.19 30.0524C231.429 30.2603 231.756 30.3637 232.17 30.3626C232.585 30.3597 232.95 30.2512 233.263 30.0284Z" fill="#B71D2E"/>
<path d="M207.036 28.5479L202.974 28.5479L202.974 32.7994L207.036 32.7994L207.036 28.5479Z" fill="#B71D2E"/>
<path d="M79.564 30.9543C77.6048 29.9156 76.0806 28.4726 74.9915 26.6252C73.9024 24.7778 73.3577 22.6854 73.3574 20.348C73.3574 18.0098 73.9021 15.9244 74.9915 14.0916C76.0809 12.2589 77.605 10.8307 79.564 9.80702C81.5224 8.78333 83.743 8.27108 86.2257 8.27026C88.7639 8.27026 90.957 8.84032 92.8048 9.98044C94.6527 11.1206 95.9634 12.7003 96.7368 14.7196L90.6536 17.9666C89.6331 15.8602 88.1435 14.8068 86.1848 14.8066C84.7779 14.8066 83.6123 15.297 82.6879 16.278C81.7636 17.259 81.3017 18.6157 81.3023 20.348C81.3022 22.1089 81.7641 23.4869 82.6879 24.4821C83.6117 25.4772 84.7774 25.9751 86.1848 25.976C88.1433 25.976 89.6329 24.9225 90.6536 22.8155L96.7368 26.0629C95.9639 28.083 94.6534 29.6632 92.8052 30.8033C90.9571 31.9434 88.7639 32.5135 86.2257 32.5135C83.7427 32.5135 81.5222 31.9937 79.564 30.9543Z" fill="#B71D2E"/>
<path d="M117.219 10.9311C119.177 12.7062 120.156 15.4266 120.156 19.0923L120.156 32.1237L112.832 32.1237L112.832 29.0947C111.7 31.3749 109.493 32.5152 106.211 32.5154C104.473 32.5154 102.97 32.1981 101.701 31.5634C100.432 30.9288 99.4731 30.0699 98.8244 28.9869C98.1762 27.9048 97.8523 26.6709 97.8525 25.2854C97.8525 23.0626 98.6662 21.3381 100.293 20.1121C101.921 18.886 104.431 18.2724 107.825 18.2713L112.294 18.2713C112.156 15.7895 110.57 14.5484 107.536 14.5482C106.46 14.5482 105.37 14.7287 104.267 15.0897C103.165 15.4507 102.227 15.9486 101.454 16.5836L98.8052 10.9981C100.047 10.133 101.557 9.46199 103.336 8.9851C105.084 8.51321 106.885 8.27312 108.695 8.271C112.419 8.26964 115.26 9.15635 117.219 10.9311ZM110.805 26.6251C111.495 26.1645 111.991 25.4863 112.295 24.5905L112.295 22.5559L108.904 22.5559C106.614 22.5559 105.469 23.3495 105.47 24.9366C105.47 25.6588 105.732 26.2361 106.256 26.6684C106.78 27.1006 107.498 27.3172 108.408 27.318C109.315 27.318 110.114 27.087 110.805 26.6251L110.805 26.6251Z" fill="#B71D2E"/>
<path d="M133.226 8.65869L124.543 8.65869L124.543 32.1237L133.226 32.1237L133.226 8.65869Z" fill="#B71D2E"/>
<path d="M133.226 0.531006L124.543 0.531006L124.543 7.41742L133.226 7.41742L133.226 0.531006Z" fill="#B71D2E"/>
<path d="M139.522 31.8416C137.701 31.3938 136.239 30.8099 135.136 30.0898L137.495 24.4586C138.515 25.1234 139.728 25.6501 141.136 26.0386C142.496 26.422 143.902 26.6187 145.315 26.6233C146.583 26.6233 147.487 26.4862 148.026 26.212C148.565 25.9378 148.833 25.541 148.832 25.0217C148.832 24.5026 148.508 24.1347 147.86 23.9179C147.212 23.7011 146.185 23.4923 144.778 23.2915C142.985 23.0605 141.461 22.7575 140.207 22.3823C138.952 22.0072 137.869 21.3147 136.958 20.3049C136.048 19.294 135.592 17.8794 135.592 16.0611C135.592 14.5611 136.02 13.2263 136.875 12.0568C137.73 10.8873 138.979 9.96388 140.62 9.2865C142.261 8.6083 144.227 8.26907 146.516 8.2688C148.143 8.26895 149.766 8.44296 151.355 8.78785C152.955 9.1347 154.293 9.62546 155.37 10.2601L153.011 15.8448C151.025 14.6911 148.874 14.1141 146.557 14.1138C145.315 14.1138 144.405 14.2654 143.826 14.5684C143.247 14.8715 142.957 15.2681 142.957 15.7583C142.957 16.3076 143.274 16.6901 143.908 16.9058C144.542 17.1215 145.59 17.3451 147.053 17.5766C148.901 17.8658 150.432 18.1978 151.647 18.5727C152.861 18.9476 153.917 19.633 154.812 20.6289C155.708 21.6254 156.156 23.0181 156.157 24.807C156.157 26.2793 155.729 27.5998 154.874 28.7685C154.019 29.9372 152.757 30.8537 151.087 31.518C149.419 32.1812 147.412 32.513 145.068 32.5132C143.199 32.5139 141.336 32.2884 139.522 31.8416Z" fill="#B71D2E"/>
<path d="M161.576 31.8416C159.756 31.3938 158.294 30.8099 157.19 30.0898L159.549 24.4586C160.569 25.1234 161.783 25.6501 163.19 26.0386C164.55 26.4225 165.956 26.6198 167.369 26.6249C168.637 26.6249 169.541 26.4878 170.08 26.2136C170.618 25.9394 170.887 25.5426 170.886 25.0233C170.886 24.5043 170.562 24.1363 169.914 23.9195C169.266 23.7027 168.238 23.4934 166.831 23.2915C165.037 23.0605 163.513 22.7575 162.259 22.3823C161.004 22.0072 159.922 21.3147 159.011 20.3049C158.101 19.294 157.646 17.8794 157.646 16.0611C157.646 14.5611 158.074 13.2263 158.929 12.0568C159.784 10.8873 161.032 9.96388 162.671 9.2865C164.312 8.6083 166.278 8.26907 168.568 8.2688C170.195 8.2688 171.818 8.44281 173.409 8.78785C175.009 9.1347 176.347 9.62546 177.423 10.2601L175.066 15.8448C173.08 14.6911 170.929 14.1141 168.611 14.1138C167.37 14.1138 166.46 14.2654 165.88 14.5684C165.3 14.8715 165.011 15.2681 165.011 15.7583C165.011 16.3076 165.328 16.6901 165.962 16.9058C166.597 17.1215 167.645 17.3451 169.108 17.5766C170.955 17.8658 172.486 18.1978 173.701 18.5727C174.916 18.9476 175.971 19.633 176.867 20.6289C177.763 21.6254 178.211 23.0181 178.211 24.807C178.211 26.2793 177.784 27.5998 176.929 28.7685C176.074 29.9372 174.811 30.8537 173.142 31.518C171.473 32.1812 169.466 32.513 167.122 32.5132C165.253 32.5139 163.391 32.2884 161.576 31.8416Z" fill="#B71D2E"/>
<path d="M203.825 22.4689L187.521 22.4689C187.852 23.6813 188.493 24.6123 189.445 25.2616C190.398 25.911 191.59 26.2355 193.024 26.2352C194.1 26.2352 195.031 26.0765 195.817 25.759C196.604 25.4416 197.397 24.9221 198.196 24.2007L202.335 28.7036C200.156 31.2434 196.969 32.5132 192.775 32.5132C190.154 32.5132 187.85 31.9935 185.864 30.954C183.879 29.9146 182.341 28.4715 181.252 26.6249C180.163 24.7781 179.618 22.6857 179.618 20.3478C179.618 18.0392 180.149 15.9685 181.211 14.1355C182.274 12.3025 183.743 10.8664 185.618 9.82718C187.494 8.78772 189.604 8.26826 191.95 8.2688C194.184 8.2688 196.211 8.75235 198.032 9.71945C199.854 10.6866 201.295 12.0863 202.356 13.9188C203.418 15.7512 203.949 17.9231 203.949 20.4343C203.949 20.4926 203.907 21.1696 203.825 22.4689ZM188.948 15.1952C188.135 15.9175 187.617 16.899 187.396 18.1398L196.583 18.1398C196.361 16.8993 195.843 15.9177 195.03 15.1952C194.217 14.4727 193.204 14.1122 191.989 14.1138C190.776 14.1138 189.762 14.4743 188.948 15.1952Z" fill="#B71D2E"/>
</g>
<defs>
<clipPath id="clip0_57_909">
<rect width="237.522" height="32.8488" fill="white"/>
</clipPath>
</defs>
</svg>
